<?xml version="1.0" standalone="no"?>
<!DOCTYPE svg PUBLIC "-//W3C//DTD SVG 20010904//EN"
 "http://www.w3.org/TR/2001/REC-SVG-20010904/DTD/svg10.dtd">
<svg version="1.0" xmlns="http://www.w3.org/2000/svg"
 width="500.000000pt" height="134.000000pt" viewBox="0 0 500.000000 134.000000"
 preserveAspectRatio="xMidYMid meet">

<g transform="translate(0.000000,134.000000) scale(0.100000,-0.100000)"
fill="#000000" stroke="none">
<path d="M388 1132 c-156 -179 -276 -362 -324 -494 -9 -24 -22 -80 -29 -125
-15 -91 -7 -181 22 -236 29 -56 101 -124 166 -153 58 -27 70 -29 192 -29 115
0 143 4 246 33 134 36 166 49 1164 477 407 175 749 320 759 323 16 4 18 1 13
-19 -3 -13 -12 -53 -20 -89 -30 -129 -97 -451 -97 -466 0 -12 10 -14 42 -12
l42 3 34 160 c54 261 65 306 74 311 4 3 8 -103 8 -235 l0 -241 65 0 c36 0 65
3 65 6 0 7 84 400 105 489 7 33 17 81 20 108 l7 47 -40 0 c-23 0 -43 -4 -46
-8 -3 -5 -10 -35 -15 -68 -6 -32 -22 -113 -37 -179 -14 -66 -30 -142 -35 -169
-8 -48 -15 -64 -24 -55 -2 3 -5 112 -6 244 l-1 240 133 58 c74 31 190 80 259
108 119 49 158 68 115 57 -11 -3 -434 -116 -940 -251 -506 -135 -1041 -278
-1190 -317 -221 -59 -288 -73 -370 -77 -122 -6 -197 11 -259 59 -82 62 -115
132 -116 246 0 95 13 146 66 260 23 50 41 92 40 92 -2 0 -41 -44 -88 -98z"/>
<path d="M3211 968 c-5 -13 -21 -81 -36 -153 -14 -71 -42 -203 -61 -293 -20
-90 -33 -169 -31 -176 3 -8 21 -13 43 -12 l38 1 21 108 c20 108 34 128 47 66
4 -19 15 -64 24 -101 l17 -66 44 -4 c52 -4 52 -3 18 113 -13 46 -25 93 -25
104 0 11 32 67 70 124 39 56 70 105 70 107 0 2 -20 4 -44 4 -44 0 -45 -1 -95
-75 -27 -41 -52 -83 -56 -94 -7 -22 -31 -35 -40 -21 -3 5 -2 18 3 27 15 27 83
344 76 354 -3 5 -21 9 -40 9 -26 0 -36 -5 -43 -22z"/>
<path d="M3944 971 c-54 -33 -84 -89 -104 -191 -5 -30 -19 -98 -30 -150 -34
-158 -38 -192 -29 -225 16 -57 41 -70 131 -70 88 0 108 12 108 65 0 26 -1 26
-60 22 -82 -6 -94 5 -86 77 6 52 45 241 68 329 18 70 80 100 151 73 22 -9 25
-6 36 31 16 52 8 58 -84 58 -51 0 -78 -5 -101 -19z"/>
<path d="M4216 978 c-2 -7 -11 -51 -21 -98 -9 -47 -21 -103 -26 -125 -15 -67
-47 -216 -64 -300 -9 -44 -18 -88 -21 -97 -5 -15 1 -18 39 -18 l45 0 11 48 c9
42 54 253 98 462 8 41 19 87 23 102 5 14 6 29 3 32 -12 12 -84 6 -87 -6z"/>
<path d="M4746 913 c-9 -43 -21 -96 -26 -118 -5 -22 -21 -96 -35 -165 -14 -69
-32 -158 -41 -197 -9 -40 -14 -80 -10 -88 4 -12 23 -15 88 -15 102 0 144 18
174 75 25 46 74 255 74 315 0 87 -77 106 -144 34 -14 -16 -28 -25 -31 -22 -4
3 5 53 19 111 35 143 35 147 -12 147 l-38 0 -18 -77z m130 -218 c3 -14 -1 -60
-11 -103 -36 -163 -47 -182 -105 -182 l-37 0 29 133 c31 140 51 177 95 177 16
0 24 -7 29 -25z"/>
<path d="M3026 928 c-31 -43 -9 -86 38 -74 26 6 52 56 42 81 -9 24 -62 19 -80
-7z"/>
<path d="M3559 777 c-44 -29 -73 -90 -99 -207 -28 -131 -27 -162 9 -202 28
-32 32 -33 104 -32 84 0 103 10 109 55 l5 30 -56 -7 c-47 -5 -60 -3 -80 13
-21 17 -23 25 -17 66 l7 47 93 0 94 0 7 48 c3 26 11 63 17 82 13 47 -10 106
-47 120 -46 17 -109 12 -146 -13z m105 -63 c19 -18 19 -14 5 -70 -11 -44 -12
-44 -55 -44 -51 0 -58 8 -45 56 18 67 61 93 95 58z"/>
<path d="M2977 713 c-50 -222 -77 -349 -77 -360 0 -9 15 -13 43 -13 l44 0 43
208 c23 114 43 214 44 222 1 11 -11 16 -40 18 l-40 3 -17 -78z"/>
<path d="M4356 778 c-31 -102 -85 -390 -77 -411 22 -57 87 -60 140 -7 36 37
45 38 39 5 -5 -23 -3 -25 36 -25 l42 0 28 138 c16 75 32 155 37 177 4 22 12
59 17 83 11 49 4 56 -44 50 -28 -3 -29 -6 -56 -133 -40 -186 -50 -216 -80
-238 -32 -24 -68 -16 -68 16 1 12 16 94 34 182 18 88 31 163 29 168 -7 12 -73
8 -77 -5z"/>
</g>
</svg>
